<svg height="512" viewBox="0 0 64 64" width="512" xmlns="http://www.w3.org/2000/svg"><g id="Graphic_Designer" data-name="Graphic Designer"><path d="m61 55v2a4 4 0 0 1 -8 0v-2z" fill="#46f8ff"/><path d="m61 51v4h-8v-4h4z" fill="#b2fa09"/><path d="m57 13h4v38h-4z" fill="#ff3051"/><path d="m57 3 4 10h-4-4z" fill="#b39a7c"/><path d="m53 13h4v38h-4z" fill="#ffde55"/><path d="m47 45v16h-30v-16a8 8 0 0 1 8-8h14a8 8 0 0 1 8 8z" fill="#ff7956"/><path d="m46 17v2h-2l-11.05-3.68a2.944 2.944 0 0 0 -1.9 0l-11.05 3.68h-2v-2a14 14 0 1 1 28 0z" fill="#a78966"/><path d="m44 19v6a12 12 0 0 1 -24 0v-6l11.05-3.68a2.944 2.944 0 0 1 1.9 0z" fill="#ffc477"/><path d="m24 44h16v10h-16z" fill="#b2fa09"/><path d="m15 11-2.43 8.09a1.791 1.791 0 0 0 -.57-.09h-6a1.791 1.791 0 0 0 -.57.09l-2.43-8.09 6-8z" fill="#46f8ff"/><path d="m12.57 19.09a1.989 1.989 0 0 1 1.43 1.91 2.015 2.015 0 0 1 -2 2h-6a2.006 2.006 0 0 1 -2-2 1.955 1.955 0 0 1 .59-1.41 1.854 1.854 0 0 1 .84-.5 1.791 1.791 0 0 1 .57-.09h6a1.791 1.791 0 0 1 .57.09z" fill="#ff7956"/><path d="m6 55h6v6h-6z" fill="#b2fa09"/><path d="m6 51h6v4h-6z" fill="#ff7956"/><path d="m6 31h6v20h-6z" fill="#b39a7c"/><path d="m6 27h6v4h-6z" fill="#ff7956"/><path d="m6 23h6v4h-6z" fill="#b2fa09"/><circle cx="9" cy="11" fill="#ff7956" r="2"/><path d="m40 43h-16a1 1 0 0 0 -1 1v10a1 1 0 0 0 1 1h16a1 1 0 0 0 1-1v-10a1 1 0 0 0 -1-1zm-1 10h-14v-8h14z"/><path d="m61.929 12.629-4-10a1 1 0 0 0 -1.858 0l-4 10a1 1 0 0 0 -.071.371v44a5 5 0 0 0 10 0v-44a1 1 0 0 0 -.071-.371zm-4.929-6.937 2.523 6.308h-5.046zm-1 8.308v36h-2v-36zm4 38v2h-6v-2zm-2-2v-36h2v36zm-1 10a3 3 0 0 1 -3-3v-1h6v1a3 3 0 0 1 -3 3z"/><path d="m9.8 2.4a1.036 1.036 0 0 0 -1.6 0l-6 8a1 1 0 0 0 -.158.888l2.192 7.3a2.98 2.98 0 0 0 .766 5.228v37.184a1 1 0 0 0 1 1h6a1 1 0 0 0 1-1v-37.184a2.98 2.98 0 0 0 .766-5.229l2.192-7.3a1 1 0 0 0 -.158-.887zm.2 8.6a1 1 0 1 1 -1-1 1 1 0 0 1 1 1zm1 15h-4v-2h4zm-4 26h4v2h-4zm0-2v-18h4v18zm0-20v-2h4v2zm0 30v-4h4v4zm5-38h-6a1 1 0 0 1 0-2h6a1 1 0 0 1 0 2zm-.147-4h-5.706l-2.047-6.8 3.9-5.2v2.184a3 3 0 1 0 2 0v-2.184l3.9 5.2z"/><path d="m32 32a4 4 0 0 1 -4-4h-2a6 6 0 0 0 12 0h-2a4 4 0 0 1 -4 4z"/><path d="m39 36h-.1a12.993 12.993 0 0 0 6.1-11v-5h1a1 1 0 0 0 1-1v-2a15 15 0 0 0 -30 0v2a1 1 0 0 0 1 1h1v5a12.993 12.993 0 0 0 6.1 11h-.1a9.01 9.01 0 0 0 -9 9v16a1 1 0 0 0 1 1h30a1 1 0 0 0 1-1v-16a9.01 9.01 0 0 0 -9-9zm-20-19a13 13 0 1 1 26 0v1h-.839l-10.9-3.632a4.01 4.01 0 0 0 -2.53 0l-10.892 3.632h-.839zm2 8v-5.279l10.368-3.456a2.023 2.023 0 0 1 1.264 0l10.368 3.456v5.279a11 11 0 0 1 -22 0zm25 35h-28v-15a7.009 7.009 0 0 1 7-7h14a7.009 7.009 0 0 1 7 7z"/></g></svg>