<svg height="512pt" viewBox="0 -89 512 512" width="512pt" xmlns="http://www.w3.org/2000/svg"><path d="m204.355469 104.683594v-104.683594h-182.28125zm0 0"/><path d="m163.113281 115.597656-163.113281-93.679687v93.679687zm0 0"/><path d="m277.644531 145.597656v-145.597656h-43.289062v145.597656h-234.355469v43.289063h234.355469v145.597656h43.289062v-145.597656h234.355469v-43.289063zm0 0"/><path d="m348.886719 218.886719 163.113281 93.679687v-93.679687zm0 0"/><path d="m307.644531 229.800781v104.683594h182.28125zm0 0"/><path d="m307.644531 0v104.683594l182.28125-104.683594zm0 0"/><path d="m348.886719 115.597656h163.113281v-93.679687zm0 0"/><path d="m204.355469 229.800781-182.28125 104.683594h182.28125zm0 0"/><path d="m0 218.886719v93.679687l163.113281-93.679687zm0 0"/></svg>